<svg width="245" height="19" viewBox="0 0 245 19" fill="none" xmlns="http://www.w3.org/2000/svg">
<path d="M8.36 1.2C9.88 1.2 11.2 1.456 12.32 1.968C13.44 2.464 14.304 3.184 14.912 4.128C15.52 5.056 15.824 6.152 15.824 7.416C15.824 8.68 15.52 9.776 14.912 10.704C14.304 11.632 13.44 12.352 12.32 12.864C11.2 13.36 9.88 13.608 8.36 13.608H5.432V18H0.68V1.2H8.36ZM8.072 9.864C9.048 9.864 9.784 9.656 10.28 9.24C10.776 8.808 11.024 8.2 11.024 7.416C11.024 6.632 10.776 6.024 10.28 5.592C9.784 5.16 9.048 4.944 8.072 4.944H5.432V9.864H8.072ZM27.8849 13.536H25.2929V18H20.5409V1.2H28.2209C29.7409 1.2 31.0609 1.456 32.1809 1.968C33.3009 2.464 34.1649 3.184 34.7729 4.128C35.3809 5.056 35.6849 6.152 35.6849 7.416C35.6849 8.632 35.3969 9.696 34.8209 10.608C34.2609 11.504 33.4529 12.208 32.3969 12.72L36.0209 18H30.9329L27.8849 13.536ZM30.8849 7.416C30.8849 6.632 30.6369 6.024 30.1409 5.592C29.6449 5.16 28.9089 4.944 27.9329 4.944H25.2929V9.864H27.9329C28.9089 9.864 29.6449 9.656 30.1409 9.24C30.6369 8.808 30.8849 8.2 30.8849 7.416ZM49.1786 18.336C47.4026 18.336 45.8026 17.96 44.3786 17.208C42.9706 16.456 41.8586 15.416 41.0426 14.088C40.2426 12.76 39.8426 11.264 39.8426 9.6C39.8426 7.936 40.2426 6.44 41.0426 5.112C41.8586 3.784 42.9706 2.744 44.3786 1.992C45.8026 1.24 47.4026 0.863999 49.1786 0.863999C50.9546 0.863999 52.5466 1.24 53.9546 1.992C55.3786 2.744 56.4906 3.784 57.2906 5.112C58.1066 6.44 58.5146 7.936 58.5146 9.6C58.5146 11.264 58.1066 12.76 57.2906 14.088C56.4906 15.416 55.3786 16.456 53.9546 17.208C52.5466 17.96 50.9546 18.336 49.1786 18.336ZM49.1786 14.4C50.0266 14.4 50.7946 14.2 51.4826 13.8C52.1706 13.4 52.7146 12.84 53.1146 12.12C53.5146 11.384 53.7146 10.544 53.7146 9.6C53.7146 8.656 53.5146 7.824 53.1146 7.104C52.7146 6.368 52.1706 5.8 51.4826 5.4C50.7946 5 50.0266 4.8 49.1786 4.8C48.3306 4.8 47.5626 5 46.8746 5.4C46.1866 5.8 45.6426 6.368 45.2426 7.104C44.8426 7.824 44.6426 8.656 44.6426 9.6C44.6426 10.544 44.8426 11.384 45.2426 12.12C45.6426 12.84 46.1866 13.4 46.8746 13.8C47.5626 14.2 48.3306 14.4 49.1786 14.4ZM71.0834 1.2C72.6034 1.2 73.9234 1.456 75.0434 1.968C76.1634 2.464 77.0274 3.184 77.6354 4.128C78.2434 5.056 78.5474 6.152 78.5474 7.416C78.5474 8.68 78.2434 9.776 77.6354 10.704C77.0274 11.632 76.1634 12.352 75.0434 12.864C73.9234 13.36 72.6034 13.608 71.0834 13.608H68.1554V18H63.4034V1.2H71.0834ZM70.7954 9.864C71.7714 9.864 72.5074 9.656 73.0034 9.24C73.4994 8.808 73.7474 8.2 73.7474 7.416C73.7474 6.632 73.4994 6.024 73.0034 5.592C72.5074 5.16 71.7714 4.944 70.7954 4.944H68.1554V9.864H70.7954ZM96.7524 14.328V18H83.2644V1.2H96.4404V4.872H87.9684V7.704H95.4324V11.256H87.9684V14.328H96.7524ZM109.133 13.536H106.541V18H101.789V1.2H109.469C110.989 1.2 112.309 1.456 113.429 1.968C114.549 2.464 115.413 3.184 116.021 4.128C116.629 5.056 116.933 6.152 116.933 7.416C116.933 8.632 116.645 9.696 116.069 10.608C115.509 11.504 114.701 12.208 113.645 12.72L117.269 18H112.181L109.133 13.536ZM112.133 7.416C112.133 6.632 111.885 6.024 111.389 5.592C110.893 5.16 110.157 4.944 109.181 4.944H106.541V9.864H109.181C110.157 9.864 110.893 9.656 111.389 9.24C111.885 8.808 112.133 8.2 112.133 7.416ZM125.297 4.968H120.137V1.2H135.185V4.968H130.049V18H125.297V4.968ZM147.957 11.976V18H143.205V11.904L136.797 1.2H141.813L145.797 7.872L149.781 1.2H154.389L147.957 11.976Z" fill="#132253"/>
<path d="M165.341 13.536H162.749V18H157.997V1.2H165.677C167.197 1.2 168.517 1.456 169.637 1.968C170.757 2.464 171.621 3.184 172.229 4.128C172.837 5.056 173.141 6.152 173.141 7.416C173.141 8.632 172.853 9.696 172.277 10.608C171.717 11.504 170.909 12.208 169.853 12.72L173.477 18H168.389L165.341 13.536ZM168.341 7.416C168.341 6.632 168.093 6.024 167.597 5.592C167.101 5.16 166.365 4.944 165.389 4.944H162.749V9.864H165.389C166.365 9.864 167.101 9.656 167.597 9.24C168.093 8.808 168.341 8.2 168.341 7.416ZM178.163 1.2H182.915V18H178.163V1.2ZM199.952 9.24H204.152V16.2C203.192 16.888 202.088 17.416 200.84 17.784C199.592 18.152 198.344 18.336 197.096 18.336C195.336 18.336 193.752 17.968 192.344 17.232C190.936 16.48 189.832 15.44 189.032 14.112C188.232 12.784 187.832 11.28 187.832 9.6C187.832 7.92 188.232 6.416 189.032 5.088C189.832 3.76 190.944 2.728 192.368 1.992C193.792 1.24 195.4 0.863999 197.192 0.863999C198.76 0.863999 200.168 1.128 201.416 1.656C202.664 2.184 203.704 2.944 204.536 3.936L201.512 6.672C200.376 5.424 199.016 4.8 197.432 4.8C195.992 4.8 194.832 5.24 193.952 6.12C193.072 6.984 192.632 8.144 192.632 9.6C192.632 10.528 192.832 11.36 193.232 12.096C193.632 12.816 194.192 13.384 194.912 13.8C195.632 14.2 196.456 14.4 197.384 14.4C198.296 14.4 199.152 14.216 199.952 13.848V9.24ZM225.548 1.2V18H220.796V11.448H214.316V18H209.564V1.2H214.316V7.512H220.796V1.2H225.548ZM234.876 4.968H229.716V1.2H244.764V4.968H239.628V18H234.876V4.968Z" fill="#DC2B6B"/>
</svg>
