<svg width="246" height="42" viewBox="0 0 246 42" fill="none" xmlns="http://www.w3.org/2000/svg">
<path d="M9.36 6.2C10.88 6.2 12.2 6.456 13.32 6.968C14.44 7.464 15.304 8.184 15.912 9.128C16.52 10.056 16.824 11.152 16.824 12.416C16.824 13.68 16.52 14.776 15.912 15.704C15.304 16.632 14.44 17.352 13.32 17.864C12.2 18.36 10.88 18.608 9.36 18.608H6.432V23H1.68V6.2H9.36ZM9.072 14.864C10.048 14.864 10.784 14.656 11.28 14.24C11.776 13.808 12.024 13.2 12.024 12.416C12.024 11.632 11.776 11.024 11.28 10.592C10.784 10.16 10.048 9.944 9.072 9.944H6.432V14.864H9.072ZM28.8849 18.536H26.2929V23H21.5409V6.2H29.2209C30.7409 6.2 32.0609 6.456 33.1809 6.968C34.3009 7.464 35.1649 8.184 35.7729 9.128C36.3809 10.056 36.6849 11.152 36.6849 12.416C36.6849 13.632 36.3969 14.696 35.8209 15.608C35.2609 16.504 34.4529 17.208 33.3969 17.72L37.0209 23H31.9329L28.8849 18.536ZM31.8849 12.416C31.8849 11.632 31.6369 11.024 31.1409 10.592C30.6449 10.16 29.9089 9.944 28.9329 9.944H26.2929V14.864H28.9329C29.9089 14.864 30.6449 14.656 31.1409 14.24C31.6369 13.808 31.8849 13.2 31.8849 12.416ZM50.1786 23.336C48.4026 23.336 46.8026 22.96 45.3786 22.208C43.9706 21.456 42.8586 20.416 42.0426 19.088C41.2426 17.76 40.8426 16.264 40.8426 14.6C40.8426 12.936 41.2426 11.44 42.0426 10.112C42.8586 8.784 43.9706 7.744 45.3786 6.992C46.8026 6.24 48.4026 5.864 50.1786 5.864C51.9546 5.864 53.5466 6.24 54.9546 6.992C56.3786 7.744 57.4906 8.784 58.2906 10.112C59.1066 11.44 59.5146 12.936 59.5146 14.6C59.5146 16.264 59.1066 17.76 58.2906 19.088C57.4906 20.416 56.3786 21.456 54.9546 22.208C53.5466 22.96 51.9546 23.336 50.1786 23.336ZM50.1786 19.4C51.0266 19.4 51.7946 19.2 52.4826 18.8C53.1706 18.4 53.7146 17.84 54.1146 17.12C54.5146 16.384 54.7146 15.544 54.7146 14.6C54.7146 13.656 54.5146 12.824 54.1146 12.104C53.7146 11.368 53.1706 10.8 52.4826 10.4C51.7946 10 51.0266 9.8 50.1786 9.8C49.3306 9.8 48.5626 10 47.8746 10.4C47.1866 10.8 46.6426 11.368 46.2426 12.104C45.8426 12.824 45.6426 13.656 45.6426 14.6C45.6426 15.544 45.8426 16.384 46.2426 17.12C46.6426 17.84 47.1866 18.4 47.8746 18.8C48.5626 19.2 49.3306 19.4 50.1786 19.4ZM72.0834 6.2C73.6034 6.2 74.9234 6.456 76.0434 6.968C77.1634 7.464 78.0274 8.184 78.6354 9.128C79.2434 10.056 79.5474 11.152 79.5474 12.416C79.5474 13.68 79.2434 14.776 78.6354 15.704C78.0274 16.632 77.1634 17.352 76.0434 17.864C74.9234 18.36 73.6034 18.608 72.0834 18.608H69.1554V23H64.4034V6.2H72.0834ZM71.7954 14.864C72.7714 14.864 73.5074 14.656 74.0034 14.24C74.4994 13.808 74.7474 13.2 74.7474 12.416C74.7474 11.632 74.4994 11.024 74.0034 10.592C73.5074 10.16 72.7714 9.944 71.7954 9.944H69.1554V14.864H71.7954ZM97.7524 19.328V23H84.2644V6.2H97.4404V9.872H88.9684V12.704H96.4324V16.256H88.9684V19.328H97.7524ZM110.133 18.536H107.541V23H102.789V6.2H110.469C111.989 6.2 113.309 6.456 114.429 6.968C115.549 7.464 116.413 8.184 117.021 9.128C117.629 10.056 117.933 11.152 117.933 12.416C117.933 13.632 117.645 14.696 117.069 15.608C116.509 16.504 115.701 17.208 114.645 17.72L118.269 23H113.181L110.133 18.536ZM113.133 12.416C113.133 11.632 112.885 11.024 112.389 10.592C111.893 10.16 111.157 9.944 110.181 9.944H107.541V14.864H110.181C111.157 14.864 111.893 14.656 112.389 14.24C112.885 13.808 113.133 13.2 113.133 12.416ZM126.297 9.968H121.137V6.2H136.185V9.968H131.049V23H126.297V9.968ZM148.957 16.976V23H144.205V16.904L137.797 6.2H142.813L146.797 12.872L150.781 6.2H155.389L148.957 16.976Z" fill="#132253"/>
<path d="M166.341 18.536H163.749V23H158.997V6.2H166.677C168.197 6.2 169.517 6.456 170.637 6.968C171.757 7.464 172.621 8.184 173.229 9.128C173.837 10.056 174.141 11.152 174.141 12.416C174.141 13.632 173.853 14.696 173.277 15.608C172.717 16.504 171.909 17.208 170.853 17.72L174.477 23H169.389L166.341 18.536ZM169.341 12.416C169.341 11.632 169.093 11.024 168.597 10.592C168.101 10.16 167.365 9.944 166.389 9.944H163.749V14.864H166.389C167.365 14.864 168.101 14.656 168.597 14.24C169.093 13.808 169.341 13.2 169.341 12.416ZM179.163 6.2H183.915V23H179.163V6.2ZM200.952 14.24H205.152V21.2C204.192 21.888 203.088 22.416 201.84 22.784C200.592 23.152 199.344 23.336 198.096 23.336C196.336 23.336 194.752 22.968 193.344 22.232C191.936 21.48 190.832 20.44 190.032 19.112C189.232 17.784 188.832 16.28 188.832 14.6C188.832 12.92 189.232 11.416 190.032 10.088C190.832 8.76 191.944 7.728 193.368 6.992C194.792 6.24 196.4 5.864 198.192 5.864C199.76 5.864 201.168 6.128 202.416 6.656C203.664 7.184 204.704 7.944 205.536 8.936L202.512 11.672C201.376 10.424 200.016 9.8 198.432 9.8C196.992 9.8 195.832 10.24 194.952 11.12C194.072 11.984 193.632 13.144 193.632 14.6C193.632 15.528 193.832 16.36 194.232 17.096C194.632 17.816 195.192 18.384 195.912 18.8C196.632 19.2 197.456 19.4 198.384 19.4C199.296 19.4 200.152 19.216 200.952 18.848V14.24ZM226.548 6.2V23H221.796V16.448H215.316V23H210.564V6.2H215.316V12.512H221.796V6.2H226.548ZM235.876 9.968H230.716V6.2H245.764V9.968H240.628V23H235.876V9.968Z" fill="#DC2B6B"/>
<path d="M4.82 32C5.42667 32 5.95333 32.1 6.4 32.3C6.85333 32.5 7.2 32.7867 7.44 33.16C7.68 33.5333 7.8 33.9767 7.8 34.49C7.8 34.9967 7.68 35.44 7.44 35.82C7.2 36.1933 6.85333 36.48 6.4 36.68C5.95333 36.88 5.42667 36.98 4.82 36.98H3.24V39H1.94V32H4.82ZM4.76 35.88C5.32667 35.88 5.75667 35.76 6.05 35.52C6.34333 35.28 6.49 34.9367 6.49 34.49C6.49 34.0433 6.34333 33.7 6.05 33.46C5.75667 33.22 5.32667 33.1 4.76 33.1H3.24V35.88H4.76ZM15.2282 39L13.7982 36.95C13.7382 36.9567 13.6482 36.96 13.5282 36.96H11.9482V39H10.6482V32H13.5282C14.1349 32 14.6615 32.1 15.1082 32.3C15.5615 32.5 15.9082 32.7867 16.1482 33.16C16.3882 33.5333 16.5082 33.9767 16.5082 34.49C16.5082 35.0167 16.3782 35.47 16.1182 35.85C15.8649 36.23 15.4982 36.5133 15.0182 36.7L16.6282 39H15.2282ZM15.1982 34.49C15.1982 34.0433 15.0515 33.7 14.7582 33.46C14.4649 33.22 14.0349 33.1 13.4682 33.1H11.9482V35.89H13.4682C14.0349 35.89 14.4649 35.77 14.7582 35.53C15.0515 35.2833 15.1982 34.9367 15.1982 34.49ZM22.7827 39.1C22.0693 39.1 21.426 38.9467 20.8527 38.64C20.2793 38.3267 19.8293 37.8967 19.5027 37.35C19.176 36.7967 19.0127 36.18 19.0127 35.5C19.0127 34.82 19.176 34.2067 19.5027 33.66C19.8293 33.1067 20.2793 32.6767 20.8527 32.37C21.426 32.0567 22.0693 31.9 22.7827 31.9C23.496 31.9 24.1393 32.0567 24.7127 32.37C25.286 32.6767 25.736 33.1033 26.0627 33.65C26.3893 34.1967 26.5527 34.8133 26.5527 35.5C26.5527 36.1867 26.3893 36.8033 26.0627 37.35C25.736 37.8967 25.286 38.3267 24.7127 38.64C24.1393 38.9467 23.496 39.1 22.7827 39.1ZM22.7827 37.96C23.2493 37.96 23.6693 37.8567 24.0427 37.65C24.416 37.4367 24.7093 37.1433 24.9227 36.77C25.136 36.39 25.2427 35.9667 25.2427 35.5C25.2427 35.0333 25.136 34.6133 24.9227 34.24C24.7093 33.86 24.416 33.5667 24.0427 33.36C23.6693 33.1467 23.2493 33.04 22.7827 33.04C22.316 33.04 21.896 33.1467 21.5227 33.36C21.1493 33.5667 20.856 33.86 20.6427 34.24C20.4293 34.6133 20.3227 35.0333 20.3227 35.5C20.3227 35.9667 20.4293 36.39 20.6427 36.77C20.856 37.1433 21.1493 37.4367 21.5227 37.65C21.896 37.8567 22.316 37.96 22.7827 37.96ZM32.3606 32C32.9673 32 33.494 32.1 33.9406 32.3C34.394 32.5 34.7406 32.7867 34.9806 33.16C35.2206 33.5333 35.3406 33.9767 35.3406 34.49C35.3406 34.9967 35.2206 35.44 34.9806 35.82C34.7406 36.1933 34.394 36.48 33.9406 36.68C33.494 36.88 32.9673 36.98 32.3606 36.98H30.7806V39H29.4806V32H32.3606ZM32.3006 35.88C32.8673 35.88 33.2973 35.76 33.5906 35.52C33.884 35.28 34.0306 34.9367 34.0306 34.49C34.0306 34.0433 33.884 33.7 33.5906 33.46C33.2973 33.22 32.8673 33.1 32.3006 33.1H30.7806V35.88H32.3006ZM43.4388 37.91V39H38.1888V32H43.2988V33.09H39.4888V34.91H42.8688V35.98H39.4888V37.91H43.4388ZM51.018 39L49.588 36.95C49.528 36.9567 49.438 36.96 49.318 36.96H47.738V39H46.438V32H49.318C49.9247 32 50.4514 32.1 50.898 32.3C51.3514 32.5 51.698 32.7867 51.938 33.16C52.178 33.5333 52.298 33.9767 52.298 34.49C52.298 35.0167 52.168 35.47 51.908 35.85C51.6547 36.23 51.288 36.5133 50.808 36.7L52.418 39H51.018ZM50.988 34.49C50.988 34.0433 50.8414 33.7 50.548 33.46C50.2547 33.22 49.8247 33.1 49.258 33.1H47.738V35.89H49.258C49.8247 35.89 50.2547 35.77 50.548 35.53C50.8414 35.2833 50.988 34.9367 50.988 34.49ZM56.6248 33.1H54.3048V32H60.2448V33.1H57.9248V39H56.6248V33.1ZM65.6928 36.53V39H64.3928V36.55L61.6428 32H63.0328L65.0828 35.41L67.1528 32H68.4328L65.6928 36.53ZM81.5778 39L81.5678 34.36L79.2678 38.2H78.6878L76.3878 34.42V39H75.1478V32H76.2178L78.9978 36.64L81.7278 32H82.7978L82.8078 39H81.5778ZM90.7886 37.38H87.2886L86.5986 39H85.2586L88.4086 32H89.6886L92.8486 39H91.4886L90.7886 37.38ZM90.3586 36.36L89.0386 33.3L87.7286 36.36H90.3586ZM101.509 32V39H100.439L96.5788 34.26V39H95.2888V32H96.3588L100.219 36.74V32H101.509ZM109.475 37.38H105.975L105.285 39H103.945L107.095 32H108.375L111.535 39H110.175L109.475 37.38ZM109.045 36.36L107.725 33.3L106.415 36.36H109.045ZM118.657 35.42H119.887V38.21C119.527 38.4967 119.107 38.7167 118.627 38.87C118.147 39.0233 117.654 39.1 117.147 39.1C116.434 39.1 115.79 38.9467 115.217 38.64C114.644 38.3267 114.194 37.8967 113.867 37.35C113.54 36.8033 113.377 36.1867 113.377 35.5C113.377 34.8133 113.54 34.1967 113.867 33.65C114.194 33.1033 114.644 32.6767 115.217 32.37C115.797 32.0567 116.447 31.9 117.167 31.9C117.754 31.9 118.287 31.9967 118.767 32.19C119.247 32.3833 119.65 32.6667 119.977 33.04L119.157 33.84C118.624 33.3067 117.98 33.04 117.227 33.04C116.734 33.04 116.294 33.1433 115.907 33.35C115.527 33.5567 115.227 33.8467 115.007 34.22C114.794 34.5933 114.687 35.02 114.687 35.5C114.687 35.9667 114.794 36.3867 115.007 36.76C115.227 37.1333 115.527 37.4267 115.907 37.64C116.294 37.8533 116.73 37.96 117.217 37.96C117.764 37.96 118.244 37.84 118.657 37.6V35.42ZM128.402 37.91V39H123.152V32H128.262V33.09H124.452V34.91H127.832V35.98H124.452V37.91H128.402ZM137.831 39L137.821 34.36L135.521 38.2H134.941L132.641 34.42V39H131.401V32H132.471L135.251 36.64L137.981 32H139.051L139.061 39H137.831ZM147.752 37.91V39H142.502V32H147.612V33.09H143.802V34.91H147.182V35.98H143.802V37.91H147.752ZM156.971 32V39H155.901L152.041 34.26V39H150.751V32H151.821L155.681 36.74V32H156.971ZM161.817 33.1H159.497V32H165.437V33.1H163.117V39H161.817V33.1ZM178.706 39L178.696 34.36L176.396 38.2H175.816L173.516 34.42V39H172.276V32H173.346L176.126 36.64L178.856 32H179.926L179.936 39H178.706ZM187.917 37.38H184.417L183.727 39H182.387L185.537 32H186.817L189.977 39H188.617L187.917 37.38ZM187.487 36.36L186.167 33.3L184.857 36.36H187.487ZM192.417 32H195.477C196.224 32 196.887 32.1467 197.467 32.44C198.047 32.7267 198.497 33.1367 198.817 33.67C199.137 34.1967 199.297 34.8067 199.297 35.5C199.297 36.1933 199.137 36.8067 198.817 37.34C198.497 37.8667 198.047 38.2767 197.467 38.57C196.887 38.8567 196.224 39 195.477 39H192.417V32ZM195.417 37.9C195.93 37.9 196.38 37.8033 196.767 37.61C197.16 37.41 197.46 37.13 197.667 36.77C197.88 36.4033 197.987 35.98 197.987 35.5C197.987 35.02 197.88 34.6 197.667 34.24C197.46 33.8733 197.16 33.5933 196.767 33.4C196.38 33.2 195.93 33.1 195.417 33.1H193.717V37.9H195.417ZM207.479 37.91V39H202.229V32H207.339V33.09H203.529V34.91H206.909V35.98H203.529V37.91H207.479ZM220.042 37.91V39H214.792V32H219.902V33.09H216.092V34.91H219.472V35.98H216.092V37.91H220.042ZM227.581 37.38H224.081L223.391 39H222.051L225.201 32H226.481L229.641 39H228.281L227.581 37.38ZM227.151 36.36L225.831 33.3L224.521 36.36H227.151ZM234.251 39.1C233.711 39.1 233.188 39.0233 232.681 38.87C232.181 38.7167 231.784 38.5133 231.491 38.26L231.941 37.25C232.228 37.4767 232.578 37.6633 232.991 37.81C233.411 37.95 233.831 38.02 234.251 38.02C234.771 38.02 235.158 37.9367 235.411 37.77C235.671 37.6033 235.801 37.3833 235.801 37.11C235.801 36.91 235.728 36.7467 235.581 36.62C235.441 36.4867 235.261 36.3833 235.041 36.31C234.821 36.2367 234.521 36.1533 234.141 36.06C233.608 35.9333 233.174 35.8067 232.841 35.68C232.514 35.5533 232.231 35.3567 231.991 35.09C231.758 34.8167 231.641 34.45 231.641 33.99C231.641 33.6033 231.744 33.2533 231.951 32.94C232.164 32.62 232.481 32.3667 232.901 32.18C233.328 31.9933 233.848 31.9 234.461 31.9C234.888 31.9 235.308 31.9533 235.721 32.06C236.134 32.1667 236.491 32.32 236.791 32.52L236.381 33.53C236.074 33.35 235.754 33.2133 235.421 33.12C235.088 33.0267 234.764 32.98 234.451 32.98C233.938 32.98 233.554 33.0667 233.301 33.24C233.054 33.4133 232.931 33.6433 232.931 33.93C232.931 34.13 233.001 34.2933 233.141 34.42C233.288 34.5467 233.471 34.6467 233.691 34.72C233.911 34.7933 234.211 34.8767 234.591 34.97C235.111 35.09 235.538 35.2167 235.871 35.35C236.204 35.4767 236.488 35.6733 236.721 35.94C236.961 36.2067 237.081 36.5667 237.081 37.02C237.081 37.4067 236.974 37.7567 236.761 38.07C236.554 38.3833 236.238 38.6333 235.811 38.82C235.384 39.0067 234.864 39.1 234.251 39.1ZM242.794 36.53V39H241.494V36.55L238.744 32H240.134L242.184 35.41L244.254 32H245.534L242.794 36.53Z" fill="#C4C4C4"/>
</svg>
