<svg width="103" height="85" viewBox="0 0 103 85" fill="none" xmlns="http://www.w3.org/2000/svg">
<path d="M30.9943 19C35.4277 19 39.2777 19.7467 42.5443 21.24C45.811 22.6867 48.331 24.7867 50.1043 27.54C51.8777 30.2467 52.7643 33.4433 52.7643 37.13C52.7643 40.8167 51.8777 44.0133 50.1043 46.72C48.331 49.4267 45.811 51.5267 42.5443 53.02C39.2777 54.4667 35.4277 55.19 30.9943 55.19H22.4543V68H8.59434V19H30.9943ZM30.1543 44.27C33.001 44.27 35.1477 43.6633 36.5943 42.45C38.041 41.19 38.7643 39.4167 38.7643 37.13C38.7643 34.8433 38.041 33.07 36.5943 31.81C35.1477 30.55 33.001 29.92 30.1543 29.92H22.4543V44.27H30.1543Z" fill="#132253"/>
<path d="M73.9118 54.98H66.3518V68H52.4918V19H74.8918C79.3251 19 83.1751 19.7467 86.4418 21.24C89.7085 22.6867 92.2285 24.7867 94.0018 27.54C95.7751 30.2467 96.6618 33.4433 96.6618 37.13C96.6618 40.6767 95.8218 43.78 94.1418 46.44C92.5085 49.0533 90.1518 51.1067 87.0718 52.6L97.6418 68H82.8018L73.9118 54.98ZM82.6618 37.13C82.6618 34.8433 81.9385 33.07 80.4918 31.81C79.0451 30.55 76.8985 29.92 74.0518 29.92H66.3518V44.27H74.0518C76.8985 44.27 79.0451 43.6633 80.4918 42.45C81.9385 41.19 82.6618 39.4167 82.6618 37.13Z" fill="#DC2B6B"/>
</svg>
